<svg xmlns="http://www.w3.org/2000/svg" viewBox="0 0 90 90"><defs><style>.cls-1{fill:#fff;}.cls-2{fill:#f35e5c;}</style></defs><title>Asset 2</title><g id="Layer_2" data-name="Layer 2"><g id="Logo"><circle class="cls-1" cx="45" cy="45" r="45"/><path class="cls-2" d="M6.86,31.33c4.73,0,12.73,3.43,20.23,5.69,2.14-10.54,7.55-13.3,12.46-13.3a8.2,8.2,0,0,1,8.28,8.34c0,6.71-6,9.75-13,9.75a27.44,27.44,0,0,1-3.61-.22c-.17,1.8-.28,3.77-.28,5.91,0,12.35.56,16,.56,16s3.33-17.08,10.54-17.08a4.25,4.25,0,0,1,4.4,4.46c0,5.46-6.37,10.65-6.37,10.65,3.16,3.32,2.54,5.13,4.62,5.13s3.86-3.41,4.69-5.31A44.6,44.6,0,0,1,49,54.27C49,53,49,51.9,49,50.1c.33-16.07,4-20.75,7.27-20.75,2.53,0,3.72,2.43,3.72,5.81,0,9.58-4.29,21.14-6,25.42.73,5.69,2.81,7.22,6.76,7.22,8.18,0,18.09-10,28.74-15.95A45,45,0,0,0,45,0,45,45,0,0,0,1.43,33.69,7.89,7.89,0,0,1,6.86,31.33Z"/><path class="cls-2" d="M56.74,32.45c-1.41,0-3.05,5.64-3.05,21.76V56.3C55.33,51.39,58,42.26,58,35,58,34,57.86,32.45,56.74,32.45Z"/><path class="cls-2" d="M58.88,71c-5.28,0-7.77-3.16-8.93-7.26-1.36,2.81-3.76,6.69-6.68,6.69-5.58,0-3.83-5.63-6.82-7.77a1.07,1.07,0,0,1-.4-.91,1.31,1.31,0,0,1,.4-1c3.21-1.13,5-5,5.07-9.7,0-1.07-.39-1.29-.79-1.29-3.83,0-7.83,15.78-7.83,17.58,0,1.13-1.53,2.26-2.48,2.26s-4.29-7-4.29-21.65a55.51,55.51,0,0,1,.4-7.15c-6.26-1.36-12.68-3.5-19.11-3.5-5.7,0-6.31,1.7-7,1.94A45.67,45.67,0,0,0,0,45,45,45,0,0,0,88.58,56.26C77.58,61.72,66.67,71,58.88,71Z"/><path class="cls-2" d="M45.24,31.78c0-2.93-2-5-5.24-5-2.65,0-6.65,2.42-8.29,11.44a25.61,25.61,0,0,0,5.58.68C41.41,38.94,45.24,36.4,45.24,31.78Z"/></g></g></svg>