<?xml version="1.0" encoding="UTF-8"?>
<svg width="82px" height="82px" viewBox="0 0 82 82" version="1.1" xmlns="http://www.w3.org/2000/svg" xmlns:xlink="http://www.w3.org/1999/xlink">
    <!-- Generator: Sketch 59.1 (86144) - https://sketch.com -->
    <title>Group</title>
    <desc>Created with Sketch.</desc>
    <defs>
        <polygon id="path-1" points="0 0 71.4666667 0 71.4666667 24.5333333 0 24.5333333"></polygon>
    </defs>
    <g id="2020" stroke="none" stroke-width="1" fill="none" fill-rule="evenodd">
        <g id="Design-Sprints-CS_NDA" transform="translate(-149.000000, -67.000000)">
            <g id="Group" transform="translate(150.000000, 68.000000)">
                <circle id="Oval" stroke="#CA9486" fill="#CA9486" cx="40" cy="40" r="40"></circle>
                <g id="Group-3" transform="translate(4.266667, 26.666667)">
                    <mask id="mask-2" fill="white">
                        <use xlink:href="#path-1"></use>
                    </mask>
                    <g id="Clip-2"></g>
                    <path d="M49.3868926,3.50894722 C49.4783665,3.18071617 50.1404314,1.98687116 50.4103679,2.83513676 C50.5926362,3.40791035 50.3112824,4.37039758 50.224022,4.94025664 C50.0118513,6.32618275 49.7106533,7.69850773 49.3095543,9.04016081 C49.0398896,9.94185938 48.7191191,10.8288465 48.3498253,11.6936278 C48.4158823,8.96091349 48.6610814,6.11314484 49.3868926,3.50894722 M28.7704568,3.53906398 C29.0837517,2.81751082 29.6044601,1.54414091 30.4815499,1.3967492 C31.635644,1.20300268 32.0409566,2.67636453 31.9360266,3.55169359 C31.6499156,5.94229815 29.6411584,7.51475386 27.4903651,8.70485163 C27.7824565,6.95100143 28.0636744,5.16689567 28.7704568,3.53906398 M27.7891166,15.0927968 C27.9692102,14.9538711 28.3075143,14.6703295 28.5441505,14.6962826 C28.8745713,14.732506 28.7620298,15.124579 28.6985553,15.3925766 C28.5672569,15.9453648 28.2626608,16.435699 27.869581,16.8330459 C27.3318827,17.3765355 26.6366535,17.7290542 25.9049977,17.8212087 C25.7221857,17.7687473 25.5308108,17.7319688 25.3310088,17.7121222 C26.0227042,16.7159098 26.845562,15.8203178 27.7891166,15.0927968 M70.6348113,11.7544165 C67.5859965,12.777276 64.5369099,13.8002743 61.4878233,14.8231339 C59.0805495,15.6308737 56.3522334,16.291083 54.470833,18.1384756 C53.5240164,19.0682091 53.0107836,20.3127114 52.1694406,21.3228025 C51.5992575,22.007022 50.2412838,22.9177417 49.4196492,22.0861305 C48.9515418,21.6124508 48.9344159,20.6371952 48.8387284,20.015985 C48.7136823,19.2035264 48.6139173,18.3873206 48.5363071,17.5687553 C48.4471438,16.6290292 48.3877469,15.6865272 48.3564853,14.7430538 C49.3281753,13.0269536 50.0974808,11.1851125 50.653936,9.29414086 C51.1123931,7.73639656 51.4328918,6.14159615 51.6445188,4.53014132 C51.7955256,3.38265113 52.0563555,1.61533859 50.5942673,1.2175753 C49.1567805,0.826473783 48.2803703,2.24293301 47.9983369,3.45301609 C47.5985971,5.16828354 47.3631842,6.94142513 47.1915176,8.69444262 C47.0059872,10.5870797 46.9407458,12.4888768 46.9900846,14.3878981 C45.2376719,17.3584932 42.818845,19.888301 39.7564383,21.5279296 C37.3586789,22.8117085 34.1555953,23.8102804 31.5304422,22.649883 C29.8680084,21.9150063 28.8670957,19.9869785 27.5069473,18.7634331 C28.0190927,18.5147269 28.4918214,18.1742826 28.8931923,17.7513989 C29.819621,16.7754494 31.0532281,14.0074832 29.1106638,13.3726718 C28.2856312,13.1031477 27.4446961,13.6026418 26.8250382,14.1117122 C26.5862273,14.3080956 26.3551638,14.5140554 26.1303526,14.7269545 C26.5515677,13.2937021 26.9069977,11.8399092 27.1932446,10.3697394 C28.572014,9.65304382 29.9215607,8.86140327 31.0620629,7.78497198 C32.4049495,6.51743111 33.5023652,4.65046957 33.2926411,2.71744546 C33.0875383,0.826473783 31.1070523,-0.781372593 29.3447175,0.407476096 C27.6522454,1.54941481 27.0015978,4.16207843 26.600227,6.05596463 C26.3570666,7.20331603 26.1523716,8.35427589 25.9377544,9.5025988 C25.2615539,9.83013592 24.6090034,10.1300544 24.0316165,10.4152615 C20.127595,12.3432893 16.0784113,14.1716681 11.7511359,14.8064794 C7.70385499,15.4002098 2.02118832,14.9642802 0.0620417894,19.6093393 C-0.280339931,20.4208264 0.890200512,21.1286396 1.23557247,20.3097969 C3.12798243,15.8229548 9.25524243,16.7089704 13.0855954,15.9792288 C17.4976848,15.1384577 21.6047703,13.171292 25.6126345,11.1687357 C25.430638,12.0515592 25.2290691,12.9311907 24.9845495,13.8044379 C24.604654,15.1608024 24.1640023,16.4967652 23.6658566,17.8101058 C22.9278126,19.0305979 22.360212,20.3486572 21.9805883,21.7430493 C21.779563,22.4811181 22.8754836,22.999626 23.2227584,22.2776565 C23.7191371,21.2452206 24.1801768,20.1958528 24.6053336,19.1324675 C24.9511133,19.2074124 25.3006987,19.2390558 25.6481095,19.2283692 C26.7375059,19.6130866 27.5323643,20.7264352 28.2535542,21.6321586 C29.1818857,22.7981074 30.2387973,23.7227058 31.6660901,24.1748736 C34.352407,25.0260537 37.3151846,24.2434343 39.7821271,23.061525 C42.7637975,21.6328525 45.2159248,19.3942196 47.1075192,16.7152158 C47.173848,17.5904061 47.2643706,18.4640697 47.3792227,19.33468 C47.5565979,20.6813294 47.5833741,22.5845143 48.8568058,23.3926705 C49.9304354,24.0738367 51.3698251,23.7601783 52.3477673,23.0475075 C53.6385967,22.1070874 54.1546838,20.4978531 55.2114594,19.3464769 C56.3424472,18.1141879 57.9361057,17.4920062 59.4687362,16.9623953 C63.299497,15.6383682 67.1540437,14.3817915 70.9960858,13.0927386 C71.823429,12.8153036 71.4692223,11.474622 70.6348113,11.7544165" id="Fill-1" fill="#FFFFFF" mask="url(#mask-2)"></path>
                </g>
            </g>
        </g>
    </g>
</svg>